<svg xmlns="http://www.w3.org/2000/svg" viewBox="0 0 220 260" fill="none">
  <!-- Mark -->
  <g transform="translate(78 10) scale(1.0)">
    <path d="M16 6h32a10 10 0 0 1 10 10v22a10 10 0 0 1-10 10H26l-9.5 9.4A1.6 1.6 0 0 1 14 56.3V48h-.5A9.5 9.5 0 0 1 6 38.5V16A10 10 0 0 1 16 6Z"
          fill="#BFFF3C" stroke="#1A1A1A" stroke-width="3" stroke-linejoin="round"/>
    <path d="M23.4 19.6c1.2-1.2 3.2-1.2 4.3.1l3 3.5c1 1.2 1 2.9-.1 4l-2 2c.6 1.7 1.7 3.4 3.2 4.9 1.5 1.5 3.2 2.6 4.9 3.2l2-2c1.1-1.1 2.8-1.1 4-.1l3.5 3c1.3 1.1 1.3 3.1.1 4.3l-1.6 1.6c-1.7 1.7-4.2 2.3-6.5 1.5C38 47.5 33 44.7 29 40.7c-4-4-6.8-9-8.9-14.7-.8-2.3-.2-4.8 1.5-6.5l1.8-1.9Z"
          fill="#1A1A1A"/>
    <path d="M45.5 15.5c.6 2.7 1.3 3.4 4 4-2.7.6-3.4 1.3-4 4-.6-2.7-1.3-3.4-4-4 2.7-.6 3.4-1.3 4-4Z"
          fill="#1A1A1A" stroke="#1A1A1A" stroke-width="2" stroke-linejoin="round"/>
  </g>
  <!-- Wordmark -->
  <text x="110" y="120" text-anchor="middle"
        font-family="'Pacifico', 'Brush Script MT', cursive"
        font-size="48" fill="#1A1A1A">Werk Phone</text>
</svg>
